<svg width="69" height="50" viewBox="0 0 69 50" fill="none" xmlns="http://www.w3.org/2000/svg">
<path d="M68.0771 0C67.3727 0 66.2554 0.722612 64.7737 3.22443C61.6647 8.42847 59.5697 14.7437 57.1043 21.7695C57.1043 21.7695 56.242 19.8931 54.1106 19.8931C53.7402 19.8931 53.3698 19.9113 52.9568 20.051C50.7829 20.64 49.1798 22.6136 48.1475 24.8846C44.8988 27.2346 42.0629 29.2264 39.6583 29.2264C37.7637 29.2264 36.0998 27.9937 34.7093 24.8239C34.3206 23.9616 33.768 23.573 33.1426 23.573C31.7763 23.573 29.991 25.5465 28.2361 27.8358L30.3675 20.7372V20.6765C30.3675 19.9538 29.8028 19.5409 29.232 19.5409C28.7644 19.5409 28.2908 19.8142 28.139 20.4396L27.3556 23.5912C27.2402 23.6519 27.1006 23.7855 27.0034 24.0223C25.9104 25.3886 18.5142 29.5968 14.5429 29.5968C13.0005 29.5968 11.9621 28.9896 11.9621 27.3682C11.9621 26.7428 12.12 25.9594 12.4722 25.0182C13.0005 23.6701 13.2555 22.6136 13.2555 21.8484C13.2555 21.1623 13.043 20.7554 12.6301 20.6947C12.5694 20.6765 12.4722 20.634 12.375 20.634C11.786 20.634 10.693 21.4173 9.75177 22.2006C9.2842 21.7331 8.5616 21.4173 7.57787 21.4173C7.08601 21.4173 6.52127 21.478 5.89581 21.6723C4.48702 22.1035 3.21788 23.0811 2.25845 24.2349C1.76863 24.8239 2.25845 24.2349 1.15935 25.759C0.946815 26.093 0.770725 26.427 0.63106 26.7367C0.315296 27.3622 0.120968 27.9876 0.0663169 28.4977C0.0480998 28.6556 0.0481055 28.8135 0.0481055 28.9653C0.0481055 29.3964 0.12705 29.7668 0.38209 30.0826C0.594623 30.3376 0.849662 30.5319 1.20186 30.5927C1.26258 30.5927 1.31724 30.6291 1.35974 30.6291C2.70781 30.6291 5.52539 27.9876 7.99078 25.6437C8.51908 25.1336 8.7134 24.9757 9.14454 24.5506L9.2417 24.8239C9.35707 24.9028 9.49673 24.9211 9.61211 24.9211C9.96431 24.9211 10.3347 24.745 10.6262 24.332V24.1924C10.6262 24.0163 10.6262 23.6459 10.4865 23.2512C11.2091 22.565 11.6767 22.1581 11.6767 22.1581C11.6767 22.4132 11.2638 23.5062 11.0695 24.7025C10.857 25.5829 10.778 26.3056 10.778 26.931C10.778 29.281 12.1868 30.119 14.1785 30.119C18.1681 30.119 24.5077 26.8339 26.8941 25.3461L25.0967 32.5844V32.7241C25.0967 33.137 25.4671 33.3131 25.9165 33.3131C26.4083 33.3131 27.0095 33.1006 27.1856 32.6876C27.2645 32.044 31.8613 25.589 33.4462 25.589C33.6405 25.589 33.7984 25.7044 33.8956 26.0019C35.3226 29.1899 37.3386 30.283 39.47 30.283C42.148 30.283 45.0445 28.5402 47.3703 26.8217C47.2913 27.0585 47.2124 27.2711 47.1577 27.5079C46.9634 28.2123 46.842 28.8377 46.842 29.4025C46.842 30.872 47.5099 31.8071 48.524 31.8071C48.858 31.8071 49.2284 31.7282 49.5988 31.5339C51.6938 30.538 56.1145 25.1761 56.1145 25.1761C54.8818 27.7994 51.9063 37.5395 51.9063 43.873C51.9063 44.2434 51.9063 44.6138 51.9428 44.9903C51.9428 44.9903 52.216 47.7896 53.6612 49.3138C53.6612 49.3138 54.2867 50 54.8514 50C54.9668 50 55.1065 49.9818 55.1854 49.9211C55.4222 49.7814 55.5012 49.6296 55.5012 49.4535C55.5012 49.1013 55.1308 48.7491 54.7604 48.7491C54.1956 48.7491 52.7261 48.0083 52.4711 45.5975C52.4528 45.3425 52.4528 45.051 52.4528 44.6806C52.4528 41.608 53.4487 34.8798 55.483 29.2871L57.7723 23.0872C57.7723 23.0872 68.9819 7.80908 68.9819 1.39665V1.15983C69.0001 1.0991 69.0001 1.04445 69.0001 0.983725C69.0122 0.607238 68.7026 0 68.0771 0ZM3.50936 27.8722C3.39399 27.8722 3.33326 27.7933 3.33326 27.7144C3.33326 26.9917 5.95654 23.5669 7.46249 23.5669C7.63859 23.5669 7.79647 23.6034 7.95435 23.7248C5.99297 26.3663 4.1166 27.8722 3.50936 27.8722ZM51.1776 28.7163C50.0421 30.0279 49.3559 30.538 48.9855 30.538C48.7123 30.538 48.5726 30.283 48.5726 29.8701C48.5726 28.9288 49.198 27.1921 49.8842 26.0141C51.2323 23.6641 53.1694 21.7877 54.56 21.5752C54.6571 21.5752 54.7361 21.5387 54.8332 21.5387C55.987 21.5387 56.1267 22.8868 56.1267 22.8868C56.1267 22.8868 54.9911 24.2956 51.1776 28.7163ZM66.723 4.79111C66.14 6.1999 62.1322 13.9847 59.43 18.6604C59.6061 18.0532 62.6545 8.19772 65.1624 4.22638C65.1624 4.22638 66.8808 1.40879 67.646 1.34807H67.6824C67.8403 1.34807 67.8949 1.44523 67.8949 1.62133C67.901 2.25285 67.1784 3.73451 66.723 4.79111Z" fill="#232323"/>
</svg>
