<?xml version="1.0" encoding="UTF-8"?>
<svg xmlns="http://www.w3.org/2000/svg" viewBox="0 0 800 800">
  <defs>
    <style>
      .cls-1 {
        fill: #fff;
      }

      .cls-2 {
        fill: #575857;
      }

      .cls-3 {
        stroke-width: 3px;
      }

      .cls-3, .cls-4, .cls-5, .cls-6, .cls-7, .cls-8, .cls-9, .cls-10 {
        stroke-miterlimit: 10;
      }

      .cls-3, .cls-5, .cls-6, .cls-7, .cls-8, .cls-9, .cls-10 {
        fill: none;
      }

      .cls-3, .cls-6 {
        stroke: #88a48c;
      }

      .cls-11 {
        letter-spacing: .2em;
      }

      .cls-12 {
        letter-spacing: .35em;
      }

      .cls-13 {
        font-size: 12px;
      }

      .cls-13, .cls-14, .cls-15, .cls-16, .cls-17, .cls-18 {
        fill: #2d2d2d;
      }

      .cls-13, .cls-14, .cls-15, .cls-17, .cls-18 {
        font-family: BodoniFLF-Roman, BodoniFLF;
      }

      .cls-19 {
        fill: #231f20;
        font-family: RalewayRoman-ExtraLight, Raleway;
        font-size: 5.03px;
        font-variation-settings: 'wght' 200;
      }

      .cls-20 {
        letter-spacing: .35em;
      }

      .cls-14 {
        font-size: 10.44px;
      }

      .cls-21 {
        letter-spacing: .35em;
      }

      .cls-22 {
        letter-spacing: .27em;
      }

      .cls-23 {
        letter-spacing: .37em;
      }

      .cls-24 {
        letter-spacing: .3em;
      }

      .cls-25 {
        letter-spacing: .35em;
      }

      .cls-4 {
        fill: #84a583;
        stroke: #363534;
        stroke-width: .25px;
      }

      .cls-5 {
        stroke-dasharray: 0 0 6.03 6.03;
      }

      .cls-5, .cls-7, .cls-8, .cls-9, .cls-10 {
        stroke: #465f59;
        stroke-linecap: square;
        stroke-width: 2px;
      }

      .cls-26 {
        letter-spacing: .99em;
      }

      .cls-27 {
        letter-spacing: .33em;
      }

      .cls-28 {
        letter-spacing: .31em;
      }

      .cls-29 {
        letter-spacing: .27em;
      }

      .cls-30 {
        letter-spacing: .35em;
      }

      .cls-31, .cls-6 {
        opacity: .6;
      }

      .cls-31, .cls-32 {
        fill: #88a48c;
      }

      .cls-33 {
        fill: #465f59;
      }

      .cls-34 {
        letter-spacing: .35em;
      }

      .cls-15 {
        font-size: 9.57px;
      }

      .cls-6 {
        stroke-width: 4px;
      }

      .cls-16 {
        font-family: BodoniFLF-Bold, BodoniFLF;
        font-size: 7.83px;
      }

      .cls-35 {
        letter-spacing: .35em;
      }

      .cls-36 {
        letter-spacing: .27em;
      }

      .cls-37 {
        letter-spacing: .35em;
      }

      .cls-38 {
        fill: #bad3c7;
      }

      .cls-39 {
        letter-spacing: .27em;
      }

      .cls-8 {
        stroke-dasharray: 0 0 6.03 6.03;
      }

      .cls-40 {
        letter-spacing: .35em;
      }

      .cls-41 {
        letter-spacing: 1em;
      }

      .cls-9 {
        stroke-dasharray: 0 0 6.36 6.36;
      }

      .cls-42 {
        letter-spacing: .32em;
      }

      .cls-43 {
        letter-spacing: .35em;
      }

      .cls-44 {
        letter-spacing: .23em;
      }

      .cls-45 {
        letter-spacing: .35em;
      }

      .cls-17 {
        font-size: 13px;
      }

      .cls-46 {
        letter-spacing: .23em;
      }

      .cls-10 {
        stroke-dasharray: 0 0 6.09 6.09;
      }

      .cls-47 {
        letter-spacing: .35em;
      }

      .cls-18 {
        font-size: 6.09px;
      }

      .cls-48 {
        letter-spacing: .35em;
      }

      .cls-49 {
        letter-spacing: .35em;
      }

      .cls-50 {
        letter-spacing: .27em;
      }
    </style>
  </defs>
  <g id="Layer_2" data-name="Layer 2">
    <polygon class="cls-32" points="101.06 649.49 97.85 642.35 235.68 580.35 255.1 553.93 335.47 366.28 357.6 333.56 363.23 312.9 373.63 275.62 400.67 131.72 399.29 22.82 407.12 22.72 408.52 132.4 408.44 132.79 381.26 277.4 381.22 277.56 370.78 314.98 364.81 336.87 342.38 370.05 261.95 557.85 240.77 586.65 239.83 587.07 101.06 649.49"/>
  </g>
  <g id="Layer_3" data-name="Layer 3">
    <polygon class="cls-32" points="563.53 203.5 561.09 203.5 497.84 178.83 475.75 174.46 402.91 161 403.7 156.72 476.56 170.18 499.23 174.7 506.42 177.49 561.91 199.15 563.53 199.15 563.53 203.5"/>
  </g>
  <g id="Layer_4" data-name="Layer 4">
    <polygon class="cls-31" points="429.78 232.71 412.18 230.2 332.2 219.32 323.39 209.45 311.62 201.77 277.02 181.62 278.78 178.61 313.48 198.83 325.68 206.78 333.94 216.05 412.66 226.75 429.18 229.11 437.43 224.91 449.56 215.84 467.87 193.63 474.65 180.54 484.54 137.07 485.93 74.59 489.41 74.67 488.01 137.5 477.94 181.74 470.68 195.71 451.98 218.38 439.15 227.94 429.78 232.71"/>
    <rect class="cls-31" x="362.17" y="201.83" width="3.48" height="74.24" transform="translate(67.23 557.55) rotate(-80.33)"/>
  </g>
  <g id="Layer_1" data-name="Layer 1">
    <path class="cls-38" d="M56.3,749.18c20.33-9.6,37.61-16.43,49.66-20.88l43.62-11.6h13.46l25.52-16.67,37.59-20.46,19.03-11.6h5.1l14.85-8.82,6.03-3.71,45.94-20.42h4.18l4.64-4.18,76.98-34.46,10.73-16.13,86.78-37.59h6.5l5.1,7.43h6.03l7.89,7.89h16.71l1.86-11.14c20.6-6.78,31.44-11.37,37.59-14.39,.2-.1,7.7-3.78,17.75-8.47,5.77-2.69,6.99-3.21,7.66-3.48,5.01-2.07,11.54-4.76,19.14-5.92,12.05-1.83,16.46,1.8,21.93-2.44,2.93-2.27,2.15-3.68,5.22-6.61,5.66-5.39,10.74-2.91,20.19-5.92,12.84-4.09,13.12-11.76,26.8-14.62,3.86-.81,4.15-.26,9.4-1.39,6.54-1.41,10.29-3.16,18.45-6.27,5.53-2.1,9.69-3.69,14.62-5.22,10.46-3.26,13.94-3.05,24.71-5.92,9.92-2.64,12.33-7.11,18.1-5.92,4.34,.89,9.06,4.15,8.7,6.61-.62,4.24-17.22-.09-37.24,8.7-7.52,3.31-6.87,4.65-18.1,10.79-13.36,7.31-22.87,10.1-32.37,13.57-20.82,7.62-20.23,10.7-44.2,21.23-39.41,17.31-69.05,21.3-82.84,36.2-1.53,1.65-5.52,6.31-12.18,11.49-9.06,7.04-10.91,5.61-16.36,10.79-8.73,8.32-6.97,14.87-14.62,18.45-4.09,1.91-7.87,1.57-13.57,1.04-11.43-1.05-12.23-5.14-21.58-6.27-1.84-.22-15.36-1.84-26.45,5.57-4.86,3.25-7.76,7.23-12.88,6.85-2.53-.19-3.4-1.28-8.35-2.32-1.19-.25-4.84-1-8.82-.93-3.12,.05-10.07,.17-15.78,4.64-4.55,3.56-6.55,8.51-8.35,12.99-2.46,6.1-1.7,8.13-4.01,10.36-3.93,3.78-10.65,2.25-15.02,1.71-3.51-.44-15.22,2.95-38.52,9.75-39.15,11.42-33.96,11.14-38.06,11.6-3.52,.4-10.94,1-18.1,6.03-4.02,2.82-5.22,5.13-7.89,7.89-7.84,8.13-16.9,8.44-29.7,12.07-5.65,1.6-2.25,1.08-31.09,13.46-26.47,11.36-24.12,9.57-41.3,17.17-20.91,9.25-25.1,12.23-40.26,17.52-9.79,3.41-17.77,5.57-22.97,6.96-23.15,6.2-26.6,4.76-40.72,9.4-14.67,4.82-13.23,7.12-31.33,14.27-18.77,7.42-39.56,12.55-40.38,10.44-.92-2.38,23.63-13.97,34.57-19.14Z"/>
    <path class="cls-32" d="M129.04,751.49l-38.12-85.41-23.98-56.73-32.92-61.21-15.7-35.68-5.3-19.69-.02-1.02c-.12-7.08,1.07-14.03,3.54-20.67,2.42-6.49,5.97-12.42,10.55-17.61L292.51,141.69l15.04-20.79,27.63-65.37,18.56-38.95,14.93,7.11-18.48,38.79-28.14,66.59-16.73,23.09L39.52,464.37c-3.26,3.68-5.78,7.89-7.49,12.49-1.63,4.38-2.47,8.96-2.5,13.63l4.43,16.46,14.93,33.93,32.98,61.31,24.25,57.36,38.02,85.18-15.1,6.74Z"/>
    <polygon class="cls-32" points="653.05 283.79 620.28 280.69 585.49 271.06 571.97 259.95 563.71 249.69 562.29 201.12 563.28 196.68 571.86 162.34 578.24 129.28 578.68 128.82 656.47 47.09 663.01 35.95 700.78 22.8 712.89 22.83 722.17 24.46 721.42 28.74 712.33 27.15 701.51 27.15 665.95 39.53 659.97 49.73 659.79 49.91 582.27 131.36 576.1 163.34 567.51 197.68 566.66 201.53 568.02 248.1 575.08 256.87 587.54 267.11 621.25 276.45 653.17 279.44 722.18 276.78 764.19 270.87 764.8 275.18 722.46 281.12 653.05 283.79"/>
    <text class="cls-14" transform="translate(122.91 619.72) rotate(-25.42)"><tspan class="cls-48" x="0" y="0">RIZAL </tspan><tspan class="cls-11" x="53.47" y="0">A</tspan><tspan class="cls-47" x="62.42" y="0">VENUE</tspan></text>
    <text class="cls-17" transform="translate(49.56 409.23) rotate(-49.47)"><tspan class="cls-37" x="0" y="0">MacArt</tspan><tspan class="cls-24" x="66.94" y="0">h</tspan><tspan class="cls-20" x="77.84" y="0">ur Hwy</tspan></text>
    <text class="cls-17" transform="translate(67.89 637.99) rotate(-115.42)"><tspan class="cls-37" x="0" y="0">MacArt</tspan><tspan class="cls-24" x="66.94" y="0">h</tspan><tspan class="cls-20" x="77.84" y="0">ur Hwy</tspan></text>
    <text class="cls-17" transform="translate(275.44 146.15) rotate(-65.16)"><tspan class="cls-37" x="0" y="0">MacArt</tspan><tspan class="cls-24" x="66.94" y="0">h</tspan><tspan class="cls-20" x="77.84" y="0">ur Hwy</tspan></text>
    <text class="cls-14" transform="translate(265.76 498.02) rotate(-65.16)"><tspan class="cls-48" x="0" y="0">RIZAL </tspan><tspan class="cls-11" x="53.47" y="0">A</tspan><tspan class="cls-47" x="62.42" y="0">VENUE</tspan></text>
    <text class="cls-14" transform="translate(373.11 219.98) rotate(-77.98)"><tspan class="cls-49" x="0" y="0">RIZAL </tspan><tspan class="cls-11" x="53.47" y="0">A</tspan><tspan class="cls-48" x="62.42" y="0">VENUE</tspan></text>
    <polyline class="cls-3" points="502.34 175.91 525.95 128.93 555.65 136.36 559.6 138.68 555.89 163.07 553.1 181.37 549.85 183.92 537.32 180.11 535.7 188.92"/>
    <line class="cls-3" x1="571.2" y1="164.98" x2="555.89" y2="163.07"/>
    <line class="cls-3" x1="545.45" y1="133.8" x2="537.32" y2="180.11"/>
    <g>
      <path class="cls-4" d="M641.6,42.91c-.31-.08-.53-.37-.8-.55-.21-.16-.43-.49-.61-.47-.7,.04-.86-.41-.94-.92-.1-.64-.47-1.02-1.02-1.35-.29-.18-.66-.66-.59-.92,.14-.86-.25-1.02-.94-.98-.21,.02-.43,0-.64-.02-.57-.06-.74-.41-.41-.88,.18-.27,.41-.53,.64-.76,.35-.35,.29-.64-.02-.98-.31-.39-.55-.84-.88-1.35-.86,1.04-2.11,1.27-3.42,.98-.16-.27-.39-.43-.55-.64-.16-.18-.37-.41-.39-.61-.02-.39,.04-.82,.18-1.17,.16-.45,.14-.78-.27-1.04-.51-.33-1.02-.7-1.56-.96-.51-.27-.88-.51-.82-1.17,.02-.25-.23-.66-.43-.72-.92-.29-1.02-.84-.68-1.62,.23-.57-.08-.86-.61-.92-.37-.04-.72,0-1.07-.06-1.39-.2-2.75-.47-3.4-2.01-.29-.66-.86-.72-1.45-.23-.1,.1-.27,.14-.31,.16,.06,.27,.25,.61,.18,.68-.16,.16-.51,.31-.72,.27-.61-.18-1.25-.41-1.84-.7-.96-.45-1.84-1.17-2.99-.92-.53,.12-1,.06-1.37-.31-.39-.37-.68-.84-.92-1.13,.51-.72,.94-1.33,1.35-1.93-.04-.02-.08-.04-.12-.04,.39-.14,.78-.29,1.19-.43-.02-.06-.04-.14-.06-.23-.78-.08-1.58-.16-2.36-.23-.55-.02-.8-.23-.9-.78-.18-.98-.61-1.31-1.62-1.39-.8-.08-1.6-.18-2.4-.23-.72-.04-1.43,0-2.15-.04-.43-.02-.92,.02-1.27-.16-1.31-.72-2.13-.57-3.09,.76-.14-.31-.31-.51-.31-.74-.02-.27,.08-.53,.18-.98-1.31,.8-2.29,.64-3.4-.06-.96-.59-2.13-.82-3.26-1.23,.12-.84-.53-.7-1.11-.57-.45-.82-.68-.9-1.58-.64-.25,.06-.49,.18-.74,.18-.23,0-.53-.08-.61-.25-.57-1.04-1.52-1.13-2.52-.98-.45,.06-.8,.02-1.15-.35-.21-.25-.66-.39-1-.39-.45,0-.92,.33-1.35,.27-.84-.1-1,.29-.98,.96,.02,.14-.04,.27-.08,.43-.53-.14-.96-.25-.92-.96,.02-.55-.49-.88-.98-.59-.68,.41-1.19,.25-1.68-.29-.35-.37-.72-.35-.98,.14-.06,.12-.14,.25-.23,.35-.49,.72-1.07,.72-1.58,.02-.21-.27-.39-.59-.66-.74-.31-.14-.84-.29-1.04-.12-.78,.61-1.76,.41-2.62,.74-.53,.2-1.02,.27-1.15,.94-.02,.12-.53,.31-.59,.27-.45-.57-.9-.29-1.35-.04-.72-.49-.72-.47-1.27,.25-.08,.1-.23,.2-.35,.2-1,0-2.03,0-3.05-.06-.25-.02-.55-.2-.72-.41-.39-.41-.23-.92,.33-.98,1.17-.14,2.31-.27,3.48-.35,.57-.06,.8-.39,.53-.9-.27-.53-.66-.76-1.25-.74-.25,0-.68-.12-.7-.27-.12-.49-.47-.43-.78-.43-2.05-.08-4.12-.23-6.15,.37-.04-.06-.1-.12-.12-.18-.49-1.29-.61-1.33-1.93-1.11-.27,.04-.7-.14-.88-.37-.88-1.02-1.97-1.37-3.26-1.19-.84,.12-1.66,.39-2.5,.53-.25,.04-.55-.1-.8-.23-.16-.08-.29-.27-.43-.39-.14,.2-.29,.39-.41,.59-.06,.12-.06,.29-.12,.41-.18,.55-.45,.61-.96,.29-.53-.37-1.11-.7-1.7-1-.14-.06-.43-.04-.57,.06-1.04,.76-1.23,2.29-.41,3.28,.08,.1,.21,.2,.25,.33,.06,.14,.12,.37,.06,.43-.1,.12-.33,.2-.49,.18-.1,0-.23-.18-.29-.31-.12-.18-.14-.49-.29-.59-.76-.45-1.52-.94-2.36-1.25-1.35-.49-2.5,.14-3.61,.92-.49-.35-.94-.33-1.35,.16-.1,.1-.27,.23-.43,.25-1.19,.2-2.38,.41-3.56-.06-.18-.08-.53,.02-.68,.16-.12,.1-.08,.43-.02,.61,.1,.27,.29,.47,.55,.9-.45,.14-.96,.47-1.13,.33-.47-.33-.74-.9-1.15-1.29-.57-.53-1.19-.98-1.82-1.41-.14-.08-.66,.1-.72,.27-.25,.7-.8,1-1.39,1.23-.92,.35-1.86,.61-2.89,.94,.16,.57-.21,.9-.76,1.17-.18,.1-.35,.39-.39,.61-.08,.49-.35,.64-.78,.61-.41-.02-.8,0-1.29,0,.1,.2,.12,.39,.23,.47,.49,.37,.94,.74,1.66,.68,.35-.02,1.02,.27,1.07,.51,.16,.74,0,1.52-.53,2.13-.35,.39-.7,.49-1.17,.12-.29-.2-.7-.27-1.05-.39-.68-.23-1.33-.47-2.01-.66-.25-.06-.53,.04-.78,.06-.04,.08-.06,.18-.08,.29,.41,.31,.82,.64,1.27,.9,.45,.27,.64,.61,.53,1.13-.18,.78-.96,1.07-1.76,.59-.57-.37-1.13-.49-1.7-.12-.76,.51-1.86,.29-2.36,1.27-.02,0-.06-.02-.06-.02-.14-.33-.27-.57-.39-.82-.23,.12-.43,.27-.66,.37-.21,.08-.45,.1-.7,.12-1.19,.1-2.38,.2-3.56,.29-.23,.02-.45,.06-.66,.08,.06-.2,.1-.41,.18-.61,.02-.06,.06-.14,.12-.23-.64,.1-1.23,.16-1.78,.33-.74,.2-1.45,.53-2.19,.74-.45,.1-.92,.12-1.39,.12-.08,0-.25-.18-.25-.27,0-.14,.1-.29,.21-.39,.08-.08,.23-.1,.53-.2-.78-.37-1.37-.64-1.99-.92-.27,.92-.55,1.07-1.27,.57-.74-.51-1.5-.53-2.36-.49-1.5,.08-2.83,.68-4.24,.96-.7,.14-1.39,.35-1.99,.74-.82,.51-.76,.59-1.37-.14-.55-.68-1.15-.66-1.7-.02-.14,.18-.39,.31-.64,.39-.35,.12-.74,.14-1.09,.27-1.29,.47-2.58,.96-3.85,1.43-.43,.16-.82,.35-.78,.96,.04,.47-.27,.7-.72,.64-.27-.06-.55-.14-.78-.29-.53-.41-1.02-.61-1.68-.25-.31,.18-.74,.16-1.11,.18-.68,.02-1.35,0-2.15,0,.49,.9,.04,1.25-.61,1.5-.53,.2-.82,.43-.47,1.09,.23,.43,.02,.8-.55,.76-.64-.06-1,.1-.55,.9-.39,0-.66,.02-.92,0-1.04-.02-2.11-.18-3.05,.57-.21,.16-.66,.16-.96,.06-1.19-.37-2.27-.06-2.77,.92-.25,.49-.45,.92-1.07,1.02-.08,.02-.23,.31-.18,.43,.04,.14,.25,.31,.37,.33,.27,.02,.51-.1,.78-.1,.59-.02,1.19-.02,1.9-.02-.37,.76-.94,.59-1.45,.64-.31,.04-.59,.27-.88,.39,.21,.18,.41,.37,.61,.55,.04,.02,.04,.06,.12,.23-.64,.2-1.25,.39-1.95,.64,.55,.59,1.02,.51,1.62,.31,.86-.31,1.76-.47,2.66-.64,.18-.04,.53,.12,.57,.25,.08,.31,.14,.78-.02,.92-.72,.68-.66,1.5-.59,2.34,.06,.88,.35,1.07,1.15,.74,.57-.25,1.07-.31,1.6,.1,.31,.23,.72,.33,1.09-.08,.08-.1,.39-.06,.59-.04,.31,.02,.59,.1,.9,.12,2.13,.02,4.14-.49,6.08-1.27,.33-.12,.7-.16,1.04-.23,.53-.06,1.13-.02,1.64-.18,1.15-.35,1.13-.39,1.86,.51,.02,.04,.08,.04,.12,.04,.88-.55,.9-.8,.02-1.88,.47-.06,.86-.23,1.21-.14,1.21,.29,2.42,.66,3.63,1,.12,.04,.25,.1,.55,.25-.27,.43-.45,.9-.78,1.15-.74,.51-1.54,.94-2.34,1.35-.2,.1-.51,.08-.76,.02-1-.27-1.99-.59-3.01-.84-.47-.12-.98-.1-1.5-.14-.02,.08-.06,.16-.1,.23,.29,.35,.59,.7,.84,1.07,.1,.14,.12,.39,.1,.57,0,.06-.27,.16-.35,.12-.78-.39-1.58-.35-2.4-.12-.16,.04-.37-.2-.57-.23-1.13-.12-2.25-.35-3.36-.29-.86,.06-1.52,.8-2.21,1.31-.29,.2-.66,.33-1,.39-.41,.08-.84,.06-1.27,.02-1.15-.12-2.03,.37-2.75,1.21-.8,.92-1.72,1.6-2.93,1.91-.25,.06-.47,.27-.68,.41,.18,.23,.37,.51,.61,.66,.41,.27,.68,.96,.31,1.23-.88,.68-.68,1.7-1.02,2.64,.84-.29,1.07-.82,1.13-1.52,.04-.68,.12-.74,.9-.43-.1,.57-.2,1.17-.31,1.78,.94,.08,1.99,.29,2.34-1.29,.27,.47,.43,.74,.49,.86,.57-.1,1.02-.27,1.5-.29,.47-.02,.78-.1,.9-.59,.1-.47,.37-.57,.84-.43,.68,.2,1.41,.25,2.07,.49,.35,.12,.61,.53,.84,.86,.1,.16,.04,.43,.08,.72,.64-.29,1.04-.1,1.43,.37,.18,.25,.53,.39,.82,.57,.06-.53-.02-.9-.08-1.27-.1-.68,.27-1.27,.82-1.35,.61-.1,1.17,.33,1.29,.96,.04,.18,.06,.39,.14,.55s.25,.41,.39,.41c.16,.02,.39-.14,.51-.29,.55-.76,.88-.84,1.7-.43,.2,.12,.41,.25,.61,.33,1.13,.49,2.05,.12,2.15-.84,.1-.96,1.11-1.66,2.05-1.47,.59,.12,1.21,.18,1.8,.31,.76,.16,1.64,.16,2.25,.55,1.5,1.02,3.22,1.15,4.9,1.45,.61,.1,1.29-.2,1.68,.49,.14-.41,.27-.98,.39-.98,.98,.02,2.05-.55,2.97,.35,.27,.25,.7,.29,1.07,.41,0-.06,.02-.1,.04-.16-.39-.43-.78-.86-1.33-1.47-1.02,.14-1.25-1.15-2.01-1.7-.06-.06,0-.43,.1-.57,.57-.86,1.25-1.56,2.44-1.39,.14,.02,.35-.08,.51-.18,1.04-.74,2.21-.9,3.48-.96,.78-.02,1.54-.39,2.32-.59,.23-.06,.45-.14,.66-.14,1.7,.08,3.38,.18,4.94-.7,.14-.08,.31-.1,.47-.12,1.72-.33,3.42-.57,5.04,.45,.35,.2,.9,.18,1.31,.1,1-.2,1.99-.53,2.97-.76,.39-.08,.82-.08,1.21,0,1.66,.35,3.32,.57,4.98-.06,.14-.06,.41-.08,.49,0,.49,.49,1.04,.16,1.58,.14,.68-.02,1.31,0,1.84,.53,.18,.16,.47,.25,.72,.29,1.41,.23,2.42,1.13,3.46,2.01,1.58,1.33,2.29,3.11,1.56,4.96-.72,1.84-.14,3.95-1.37,5.61,.04,1.07-.12,2.19,.16,3.18,.51,1.68,1.27,3.28,1.95,4.9,.53,1.27,1.11,2.52,1.64,3.79,.37,.88,.41,1.66-.37,2.4-.43,.43-.76,.98-1.11,1.5-.31,.47-.29,.98,.02,1.47,.72,1.11,1.41,2.23,2.15,3.34,.88,1.31,1.45,2.72,1.45,4.32,0,1.41-.31,1.7-1.82,1.84-1.19,.08-2.38,.08-3.56,.12-.74,.04-1.45,.12-2.19,.06-1.64-.12-3.28-.41-4.92-.45-1.41-.04-2.83,.16-4.24,.25-.59,.04-1.27,.2-1.78,0-1.02-.43-1.88-.08-2.79,.31-.23,.08-.51,.08-.78,.04-.76-.08-1.54-.31-2.31-.29-2.19,.02-4.4,.12-6.6,.23-.27,.02-.61,.06-.78,.23-.39,.37-.8,.41-1.25,.27-.55-.16-1.09-.45-1.64-.47-.76-.04-1.52,.1-2.27,.16-.51,.06-1.04,.18-1.56,.23-.27,.02-.55-.12-.84-.1-1.6,.04-3.22,.1-4.81,.18-.41,.02-.82,.18-1.25,.23-.68,.08-1.35,.16-2.01,.1-.94-.06-1.88-.35-2.81-.35-1.45,.02-2.89,.23-4.32,.33-.33,.02-.68-.02-1-.06-1.41-.18-2.85-.47-4.24,.23-.27,.12-.61,.16-.9,.18-1.93,.1-3.83,.23-5.76,.27-2.25,.04-4.51-.06-6.76,.06-1.37,.06-2.72,.39-4.01,.59h170.84v-.31c-1.13-.04-2.25-.1-3.38-.14-.45-.02-.9,0-1.35-.02-2.09-.06-4.18-.14-6.25-.2-1.62-.04-3.24-.02-4.86-.08-1.8-.08-3.58-.23-5.39-.29-.92-.02-1.86,.12-2.79,.08-3.05-.1-6.1-.25-9.16-.39-.27-.02-.53-.06-.78-.08-1.37-.06-2.77-.25-4.12-.16-2.27,.16-4.51,.14-6.74-.2-.8-.12-1.6-.23-2.4-.25-1.86-.04-3.75-.02-5.63-.02-1.19,.02-2.4,.04-3.6,.06-.14,0-.29-.02-.43-.02-.9-.08-1.84-.33-2.72-.18-1.6,.25-3.2,.16-4.79,.04-1.72-.16-3.44-.29-5.18,.06-1.11,.23-2.38,.25-3.46-.06-1.56-.47-3.03-.27-4.55-.02-.47,.08-1,.2-1.39,.04-.96-.43-1.86-.47-2.79,.08-.16,.08-.43,.06-.64,0-.18-.04-.35-.27-.51-.25-1.45,.12-2.83-.2-4.2-.55-1.37-.37-1.37-.35-1.33-1.78,.02-.61-.02-1.23,.02-1.84,.06-.92,.04-1.88,.29-2.74,.51-1.84,1.04-3.67,1.76-5.43,.8-2.01,1.47-4.1,3.13-5.67,1.09-1.02,1.35-2.54,1.93-3.85,.41-.92,1.17-1.45,2.01-1.8,.82-.33,1.72-.41,2.54-.7,.92-.31,1.84-.7,2.7-1.15,.76-.41,1.35-1.11,2.13-1.41,1.62-.64,2.79-1.84,4.1-2.89,1.47-1.21,2.6-2.77,4.1-3.97,.35-.27,.53-.72,.74-1-.39-.2-.68-.41-.98-.53-.27-.1-.68-.27-.84-.14-.41,.29-.76,.7-1.09,1.09-.45,.59-.8,1.25-1.27,1.82-.41,.51-.92,.94-1.39,1.41-1.88,1.91-3.81,3.73-6.6,4.22-.9,.16-1.56-.14-1.6-1.07-.02-.57,.23-1.21,.51-1.7,1.17-1.95,2.91-3.38,4.63-4.81,.76-.64,1.47-1.39,2.36-1.76,1.54-.66,3.2-.74,4.83-.49,.23,.02,.45,.04,.72,.06-.53-.92-1.02-1.07-2.19-.82-.25,.06-.53-.08-.8-.14,.08-.29,.08-.7,.27-.86,.33-.31,.78-.47,1.17-.68,1.17-.55,2.09-1.54,3.46-1.72,.68-.08,1.31-.49,1.97-.74,.21-.08,.41-.12,.61-.18,.94-.25,1.9-.51,2.87-.74,.41-.1,.82-.27,1.23-.25,1.11,.08,2.21,.25,3.32,.35,1.43,.14,2.89,.27,4.32,.35,.92,.06,1.88-.08,2.77,.1,2.01,.41,4.04,.61,6.04,1.19,2.09,.57,4.34,.57,6.53,.84,.94,.12,1.56-.43,2.23-.94,.25-.18,.61-.37,.9-.33,1.02,.18,2.03,.45,3.2,.74-.37,.43-.61,.72-.88,1.04,.31,.33,.57,.66,.86,.92,.78,.68,1.56,1.35,2.36,2.01,.12,.1,.35,.12,.49,.08,.08-.02,.12-.27,.12-.43-.04-.68-.14-1.35-.12-2.05,.02-.68,.55-1.27,.94-1.19,.47,.12,.94,.16,1.37,.37,1.64,.8,3.34,.72,5.08,.41,1.47-.27,2.99-.08,4.12,.88,1.04,.9,2.21,1.27,3.44,1.56,1.17,.27,2.38,.25,3.48-.27,1.37-.61,2.13-.53,2.01,1.27-.02,.35,.18,.7,.27,1.04h.2c.35-.57,.8-.72,1.17-.43,.12,.55,.1,.98,.31,1.29,.25,.37,.64,.64,1,.9,.14,.1,.37,.08,.55,.12,.02-.16,.06-.35,.04-.51-.02-.1-.18-.16-.23-.27-.1-.25-.29-.57-.21-.74,.23-.43,.49-.08,.76,.06,.27,.18,.57,.35,.88,.47,.72,.29,1.02,.08,1.02-.7,.02-.49-.02-.98,.02-1.47,.06-.55,.35-.7,.84-.41,.27,.14,.57,.25,.86,.39,.27-1.07-.33-2.01-1.23-2.27Zm-137.09-1.52c-1.33,1.09-2.95,1.25-4.55,1.6-.49,.1-.94,.41-1.43,.57-.47,.16-.94,.29-1.41,.39-.49,.12-.9,.08-1.15-.51-.23-.57,.02-.98,.31-1.35,.49-.66,1.21-.92,1.99-1.13,.55-.14,1.09-.53,1.52-.92,.2-.2,.14-.68,.18-1.02-.08-.02-.16-.06-.25-.08-.37,.94-1.09,1.31-2.03,1.45-.55,.06-1.02,.47-1.56,.68-.51,.2-.96,.14-1.39-.33-.98-1.09-2.17-1.39-3.61-.86-.29,.1-.7-.12-1.04-.2-.04-.1-.06-.2-.08-.29,.31-.25,.59-.61,.94-.72,.84-.23,.94-.31,.92-1.21v-.57c.47,.25,.9,.35,1.19,.64,.55,.49,1.09,.74,1.86,.68,.49-.04,1.02,.14,1.52,.31,.86,.25,1.64,.35,2.32-.47,.35-.41,.84-.74,1.29-1.07,.16-.12,.45-.12,.68-.16,.78-.1,1.58-.25,2.38-.31,.21-.02,.53,.1,.59,.25,.21,.47,.29,1,.43,1.5,.23,.7,.41,1.43,.7,2.11,.21,.49,.12,.72-.31,1.04Zm45.52-10.51c.35-.41,.59-1.17,1.35-.78,.82,.41,1.74,.74,2.36,1.35,.96,.96,2.27,1.15,3.34,1.82,.08,.06,.23,.02,.33,0,.84-.25,1.27,0,1.29,.88,0,.7,.23,1.11,.84,1.47,.53,.31,.82,.96,1.29,1.37,.53,.47,1.19,.84,1.76,1.27,.31,.25,.57,.53,.92,.84-.25,.31-.37,.49-.51,.68-.33,.37-.72,.7-.94,1.11-.31,.57-.74,.68-1.29,.84-1.13,.35-1.76,0-2.23-1.02-.23-.47-.61-.88-.9-1.35-.35-.51-.78-.82-1.41-.96-.51-.14-1.07-.41-1.43-.8-.88-.88-1.9-1.6-2.54-2.75-.55-1-1.37-1.84-2.09-2.75-.31-.41-.45-.82-.12-1.23Zm-26.67-5.31c.78,.04,1.64,0,2.29,.33,.98,.49,1.9,.43,2.89,.27,.33-.04,.68,.08,1,.16,.43,.1,.84,.33,1.27,.33,.64,.02,1.07,.27,1.56,.68,.72,.59,1.58,.98,2.4,1.45,.08,.06,.18,.06,.27,.1,.98,.43,1.93,.98,2.95,1.27,.86,.23,1.78,.23,2.68,.18,.94-.04,1.88-.18,2.81-.39,.59-.12,1.13-.43,1.7-.61,.29-.08,.64-.12,.9-.06,.59,.14,1.19,.35,1.76,.53,.37,.12,.64,.31,.51,.78-.06,.29,0,.61,0,.92,0,.96-.53,1.31-1.47,.94-.18-.06-.33-.18-.51-.27-.49-.23-.94-.39-1.54-.1-.55,.29-1.19,.45-1.8-.04-.14-.1-.45-.06-.68-.02-1.7,.31-3.38,.39-5.08,.02-.41-.1-.86-.06-1.29-.06-1.29,0-1.78-.37-2.21-1.6-.12-.31-.45-.55-.72-.78-.41-.35-.82-.68-1.25-.98-.18-.14-.39-.2-.57-.35-.25-.16-.47-.35-.78-.59-.66,.53-1.56,.8-2.62,.59-.8-.14-1.66-.14-2.46-.29-.64-.12-1.13-.45-1.33-1.15-.04-.18-.31-.35-.51-.43-.27-.12-.57-.16-.9-.41,.25-.16,.51-.45,.74-.43Zm2.46,13.05c-1.02,.04-2.05,.31-3.07,.39-1.27,.1-2.52,.45-3.79-.02-.21-.06-.49-.06-.7,.02-.9,.33-1.76,.7-2.66,1.02-.39,.12-.82,.18-1.23,.18-.57,0-1.13-.1-1.7-.12-.57,0-1.02-.16-1.56-.47-.49-.27-1.35-.18-1.95,.04-1.45,.55-2.48,.12-2.89-1.43-.14-.57-.16-1.17-.23-1.74-.04-.86,.04-1.58,1-1.93,.16-.04,.27-.31,.37-.49,.33-.47,.76-.59,1.31-.55,.64,.06,1.25,.16,1.86-.31,.25-.18,.94-.08,1.23,.14,.86,.66,1.62,1.45,2.42,2.17,.16,.16,.37,.27,.55,.39,.27,.16,.61,.29,.8,.51,1.09,1.39,2.46,1.68,4.16,1.35,1.68-.33,3.42-.43,5.12-.57,.41-.04,.86,.08,1.25,.25,.18,.08,.39,.45,.37,.66-.02,.33-.21,.49-.68,.51Zm32.96,6.23c-.41,.9-.92,1.76-1.39,2.64-.12,.18-.33,.33-.51,.49-.06,.06-.18,.08-.25,.14-1.07,1.09-2.15,2.15-2.38,3.75-.12,.72-.12,1.43-.31,2.11-.39,1.43-.98,2.83-1.27,4.28-.31,1.45-1.37,2.46-1.95,3.73-.14,.33-.49,.55-.76,.8-.08,.1-.23,.18-.29,.29-.57,1-1.11,2.03-1.72,3.01-.39,.59-.7,1.19-.59,1.93,.06,.39-.12,.61-.49,.55-.14-.02-.27-.35-.31-.55-.27-1.21-.45-2.46-.76-3.67-.64-2.56-1.27-5.12-2.85-7.31-.61-.86-1.02-1.82-1.11-2.93-.14-1.8,.84-3.11,1.82-4.42,.31-.41,.72-.74,1.09-1.11,.47-.47,.49-1.19,.06-1.68-.64-.74-1.31-1.43-1.84-2.23-.64-.96-1.54-1.6-2.38-2.31-.33-.27-.61-.59-.82-.94-.45-.78-1.04-1.35-1.86-1.7-1.84-.78-3.71-1.58-5.55-2.36-.31-.12-.64-.16-.96-.23-1.25-.27-2.48-.49-3.73-.76-.35-.06-.68-.14-1.02-.23-.02-.1-.02-.2-.04-.31,.57-.12,1.15-.33,1.72-.33,1.13-.02,2.27,.14,3.4,.12,.45,0,.98-.25,1.33-.53,1.64-1.33,3.48-1.82,5.53-1.29,2.13,.55,4.28,.33,6.43,.41,.76,.02,1.52,.08,2.27,.12,.18,.02,.41,.06,.53,.16,.18,.16,.45,.39,.43,.57,0,.18-.31,.41-.51,.47-.43,.1-.88,.16-1.33,.16-1.25-.04-2.38,.23-3.38,1.02-.59,.43-1.99,.49-3.11-.64-.18-.18-.37-.37-.57-.51-.49-.29-.88,.02-1.07,.39-.08,.16,.16,.66,.37,.74,1.02,.37,1.82,1.37,3.05,1.19,.72-.1,1.43-.12,2.15-.47,.7-.35,1.64-.68,2.52,.1,.1-1.11,.88-1.09,1.66-1.04h.72c2.23-.02,2.23,0,3.81,1.5,.16,.14,.33,.33,.51,.37,1.33,.27,2.17,1.21,3.09,2.07,.47,.47,.98,.88,1.15,1.62,.08,.39,.57,.72,.94,1.02,.68,.55,.86,.98,.51,1.78Zm10.43-6.74c-.55,.59-.35,1.31-.45,1.95-.1,.61-.18,1.07-.88,1.35-1.11,.47-1.99,1.29-2.62,2.31-.2,.33-.47,.61-.74,.86-.84,.76-1.68,1.54-2.58,2.23-.57,.47-1.25,.8-1.88,1.19-.06-.06-.14-.12-.2-.2-.02-1.09,.68-1.86,1.29-2.64,1.37-1.8,2.81-3.56,4.22-5.35,.21-.27,.49-.47,.74-.72,.33-.35,.76-.64,.94-1.04,.29-.7,.96-.74,1.47-1.09,.1-.06,.51,.1,.57,.25,.12,.27,.27,.76,.12,.9Zm9.32-.96c-.98,.27-1.93,.74-2.87,1.13-.14,.04-.25,.14-.39,.18-1.13,.33-2.23,.66-3.36,.98-.12,.02-.25,.04-.35,.04-.94,.1-1.11-.04-1.07-.96,0-.14,.02-.29,.04-.41,.04-.02,.08-.04,.12-.04-.2-.57-.37-1.15-.57-1.7-.29-.72,.2-1.13,1.13-1.23,.8-.08,1.72-.47,2.5,.25,.12,.12,.41,.08,.61,.06,1.15-.02,2.27-.04,3.42-.1,.2,0,.39-.14,.59-.16,.31-.02,.72-.12,.9,.02,.2,.18,.31,.61,.27,.9-.08,.51-.35,.88-.98,1.04Zm.41-4.34c-1.76,.86-3.6,1.52-5.61,1.39-.35-.02-.76-.12-1.04-.31-.82-.55-1.76-.57-2.56,0-.12,.08-.25,.14-.33,.25-.9,1.15-2.23,1.68-3.42,2.36-.55,.31-1.43,.1-2.11-.02-.23-.04-.49-.64-.45-.96,.06-.82,.18-1.68,.47-2.46,.1-.29,.66-.57,1.07-.1,.06,.04,.12,.08,.18,.1,1.37,.59,3.63-.51,4.02-1.97,.23-.84,.7-1.21,1.72-1.43,.57-.94,.55-2.17,1.74-2.42,.66-.14,1.39,.08,2.07,.16,.14,.02,.31,.16,.39,.31,.49,.86,1.04,1.7,1.43,2.6,.43,1,1.09,1.47,2.19,1.45,.29,0,.57,.31,.86,.47-.2,.18-.37,.45-.61,.57Zm9.05-12.39c.1-.41,1.58-.7,2.17-.53,.47,.14,.96,.23,1.43,.35,.14,.04,.33,.1,.43,.2,.59,.59,1.17,1.19,1.74,1.8,.29,.35,.39,.76,0,1.09-.59,.47-1.19,.94-1.8,1.37-.41,.29-.78,.04-.76-.35,.02-.7-.43-.76-.9-.8-.49-.04-.98,.04-1.5,.02-.78-.06-1.21-.53-1.19-1.23,.12-.7,.2-1.33,.37-1.93Zm-2.13,14.05c-.76,.18-1.54,.23-2.29,.2-.2,0-.41-.43-.59-.7-.25-.31-.41-.68-.68-.94-.41-.45-.45-.88-.02-1.29,.18-.16,.37-.31,.53-.47,.43-.43,.84-.74,1.45-.23,.14,.12,.57,.1,.78-.02,.96-.59,1.91-.55,2.77,.12,.78,.59,1.43,1.25,1.23,2.34-1.09,.33-2.11,.72-3.18,.98Zm18.31,5.43c-.43,.2-1.09,.1-1.6-.04-1.7-.45-3.36-1.04-5.08-1.43-1.23-.27-2.5-.23-3.75-.37-.66-.08-1.29-.31-1.93-.35-.57-.04-1.17,.06-1.74,.08h-1.07c.31-.8,.72-1.11,1.39-1.15,1.52-.06,3.03-.2,4.55-.2,.76,0,1.52,.23,2.27,.35,.39,.06,.8,.18,1.19,.14,1.52-.08,2.81,.53,4.1,1.19,.04,.02,.1,.04,.12,.08,.45,.88,1.02,1.04,1.78,.1,.08,.1,.16,.18,.25,.29-.16,.45-.18,1.17-.49,1.31Zm18.23,.94c-.72,.1-1.43,.25-2.13,.37-1.48,.08-2.7-.59-3.93-1.19-.16-.08-.25-.29-.37-.45,.16-.12,.31-.29,.49-.33,.8-.25,1.74-.14,2.21-1.04,1.31-.14,2.48-1.39,3.85-.76,1.13,.51,2.29,.57,3.46,.82,1.04,.23,2.11,.29,3.11-.25,.18-.1,.51-.02,.72,.08,.08,.04,.1,.43,0,.57-.08,.14-.35,.29-.53,.27-.43-.02-.61,.23-.92,.47-.51,.41-1.17,.74-1.82,.86-1.37,.27-2.77,.39-4.14,.57Zm14.26-1.19c-.55,.53-1.19,.78-1.93,.76-.18,0-.39-.04-.57,0-1.31,.33-2.62,.66-3.89,1.04-1.11,.33-2.19,.29-3.3,.06-.14-.02-.27-.2-.41-.33,.12-.12,.23-.29,.39-.39,.14-.08,.35-.08,.53-.14,.37-.1,.84-.08,1.07-.33,.63-.7,1.58-.66,2.29-1.17,.43-.33,.92-.39,1.33,.18,.16,.25,.57,.31,.86,.45,.06-.04,.12-.1,.18-.14-.25-.39-.51-.78-.82-1.23,.84-.41,1.66-.29,2.46-.14,.57,.1,1.15,.35,1.7,.59,.35,.16,.45,.45,.1,.78Z"/>
      <path d="M539.52,99.28c-.31,.12-.61,.29-.94,.35-.92,.2-1.86,.43-2.83,.53-.49,.04-.92-.29-1.04-.76,.7-.33,1.35-.59,1.95-.92,.18-.08,.25-.37,.35-.55-.2-.12-.45-.37-.63-.33-.51,.08-1.07,.2-1.52,.45-1.15,.61-2.21,1.33-3.34,1.97-.31,.18-.7,.23-1.04,.33,.02-.39,.1-.64,.25-.84,.18-.29,.45-.55,.61-.86,.1-.2,.16-.55,.06-.72-.1-.16-.45-.18-.7-.2-.14,0-.31,.1-.45,.18-.7,.31-1.39,.61-2.11,.92l-.18-.18c.57-.76,1.11-1.56,1.74-2.25,.64-.74,1.39-1.37,2.05-2.07,.14-.18,.29-.66,.18-.76-.41-.37-.7-.94-1.45-.88-1.07,.08-2.13,.02-3.2,.02-.04-.08-.08-.18-.1-.29,.9-.41,1.8-.82,2.75-1.25-.08-.33-.43-.51-1-.18-.76,.41-1.43,.98-2.17,1.45-.35,.23-.74,.43-1.13,.53-2.66,.68-5.35,1.33-8.01,2.01-.18,.04-.35,.23-.53,.37,.04,.06,.08,.14,.1,.2,.25-.02,.49-.04,.72-.1,1.68-.51,3.34-1.07,5.04-1.54,.84-.25,1.72-.37,2.58-.53-.04,.29-.14,.41-.25,.53-.98,1.27-2.03,2.5-2.97,3.81-.86,1.23-1.62,2.52-1.84,4.04-.08,.57,.02,1.09,.61,1.37,.08-.08,.14-.14,.16-.2,.02-.06,.04-.14,0-.18-.64-.96-.14-1.84,.21-2.7,.82-1.93,2.13-3.52,3.38-5.18,1.04-1.35,2.29-1.97,3.97-1.74,.74,.08,1.48,.14,2.15,.23-.55,.78-1.13,1.43-1.5,2.17-.59,1.23-1.54,2.05-2.66,2.68-.61,.33-1.21,.66-1.82,.96-.14,.08-.29,.12-.43,.16,.08,.12,.18,.25,.27,.35,1.07-.61,2.13-1.25,3.2-1.86,.04,.04,.08,.08,.12,.12-.45,.59-.9,1.15-1.31,1.74-.14,.2-.18,.47-.27,.72,.23-.1,.49-.16,.72-.31,.92-.53,1.86-1.11,2.81-1.64,.23-.12,.51-.12,.78-.16,.04,.04,.08,.1,.12,.14-.21,.31-.39,.64-.57,.94-.25,.43-.86,.84-.35,1.35,.45,.47,.98,.02,1.41-.2,.9-.45,1.76-.92,2.64-1.39,.55,1.58,1.31,1.97,2.91,1.47,.7-.2,1.37-.51,2.05-.78,.21-.08,.39-.23,.57-.33-.04-.06-.06-.12-.1-.2Zm-3.15-1.17c-.55,.29-.94,.51-1.41,.76,.06-.72,.49-.96,1.41-.76Zm-5.41-3.93c.06,.06,.14,.12,.23,.18-.41,.43-.82,.86-1.23,1.29-.08-.06-.14-.12-.2-.18,.41-.43,.8-.86,1.21-1.29Z"/>
      <path d="M569.79,98.02c-.25,.08-.49,.21-.74,.23-1.1,.1-1.7,.86-2.26,1.67-.07,.11-.06,.32,0,.45,.03,.06,.28,.09,.38,.04,.57-.28,1.13-.58,1.69-.89,.19-.11,.36-.27,.53-.41,.08,.04,.15,.09,.23,.13-.14,.34-.28,.69-.46,1.14,.32,0,.62,.08,.84-.01,1.38-.57,2.74-1.18,4.1-1.79,.13-.06,.24-.23,.29-.37,.15-.41,.37-.8,.85-.58,.13,.06,.06,.57,.08,1.03,.57-.17,1.2-.35,2.01-.6-.17,.41-.33,.68-.39,.97-.08,.37-.08,.75-.11,1.13,.34-.04,.71,.01,1-.12,1.32-.58,2.62-1.23,3.94-1.82,.34-.16,.73-.23,1.09-.34,.05,.07,.11,.13,.16,.2-.23,.43-.46,.87-.8,1.5,.58-.42,.98-.72,1.4-1,.22-.15,.44-.3,.69-.37,.21-.06,.49-.07,.66,.03,.1,.07,.07,.38,.06,.58,0,.15-.09,.3-.19,.63,.77-.47,1.39-.84,2.01-1.22,.47-.28,1.04-.69,1.49-.26,.52,.49-.05,.99-.31,1.44-.15,.26-.33,.5-.49,.75,.04,.08,.09,.15,.13,.23,.93-.37,1.87-.74,2.8-1.11,.08,.09,.15,.18,.23,.27-.16,.05-.32,.09-.47,.16-.78,.35-1.54,.75-2.34,1.04-.26,.09-.63-.12-.95-.2,.08-.27,.11-.58,.26-.82,.26-.41,.59-.78,.81-1.25-1.59,.14-2.66,1.25-3.92,1.95-.06-.06-.12-.11-.18-.17,.2-.45,.39-.9,.59-1.35-.03-.05-.07-.11-.1-.16-.43,.23-.89,.44-1.29,.71-.45,.31-.84,.7-1.29,1.01-.15,.1-.38,.09-.57,.13,.04-.18,.05-.38,.14-.53,.26-.46,.56-.89,.84-1.34-.05-.06-.1-.12-.16-.17-.41,.16-.82,.29-1.22,.47-1.01,.47-1.99,1-3.02,1.43-.4,.17-.89,.14-1.33,.2-.02-.42-.05-.84-.06-1.26,0-.16,.05-.31,.07-.38-1.85-.62-3.26,.45-4.77,1.13-.58,.26-1.16,.56-1.77,.75-.77,.25-1.09,.06-1.35-.69-.42,.22-.82,.53-1.26,.64-.34,.08-.74-.07-1.12-.12,.05-.35,.03-.73,.17-1.04,.15-.34,.44-.61,.61-1.02-.69,.32-1.37,.64-2.06,.97,.63-1.01,3.89-2.11,4.82-1.61Z"/>
      <path d="M550.38,92.1c-.47,.25-1,.43-1.41,.75-1.2,.93-2.35,1.92-3.53,2.87-.16,.13-.38,.18-.57,.26,.07-.21,.08-.5,.23-.61,1.43-1.14,2.87-2.27,4.33-3.35,.42-.31,.99-.72,1.48-.24,.49,.48,.19,1.11-.11,1.58-.72,1.12-1.53,2.17-2.26,3.28-.84,1.26-1.69,2.52-2.44,3.84-.24,.42-.43,1.28-.22,1.47,.51,.48,1.15-.03,1.56-.39,1.75-1.56,3.53-3.11,5.12-4.82,1.64-1.77,3.08-3.73,4.63-5.59,.13-.15,.37-.2,.57-.3-.04,.22,0,.52-.13,.66-2.73,3.06-5.47,6.13-8.25,9.15-.57,.62-1.31,1.09-2.01,1.59-.28,.2-.64,.33-.98,.41-.84,.19-1.53-.42-1.21-1.2,.47-1.12,1.12-2.18,1.77-3.21,1.03-1.62,2.15-3.18,3.2-4.79,.22-.34,.29-.77,.43-1.16-.07-.06-.14-.13-.21-.19Z"/>
      <path d="M558.88,99.12c-.3,.03-.54,.05-.78,.07-.04-.08-.08-.16-.13-.24,.09-.03,.18-.07,.27-.09,.99-.16,1.39-.94,1.86-1.69,.59-.96,1.25-1.89,2-3-.69,.27-1.22,.48-1.75,.69-.2,.08-.39,.21-.59,.24-.17,.02-.36-.07-.54-.12,.11-.13,.2-.32,.34-.37,.8-.31,1.62-.54,2.41-.88,.48-.21,.93-.52,1.35-.84,.63-.5,1.21-1.06,1.83-1.57,.16-.13,.39-.26,.58-.25,.29,.01,.58,.14,.87,.22-.22,.1-.44,.24-.68,.28-.55,.09-1.59,.8-2.14,1.56,1.11-.24,2.15-.54,3.21-.67,1.08-.13,2.17-.12,3.26-.13,.27,0,.53,.17,.8,.27,0,.09-.02,.17-.03,.26-.22,.03-.45,.12-.66,.07-2.47-.55-4.8,.09-7.12,.84-.13,.04-.29,.1-.37,.2-1.04,1.37-2.06,2.75-3.17,4.24,1.49-.13,2.74-.24,3.98-.35,.12-.01,.25-.05,.35,0,.17,.07,.32,.2,.47,.3-.16,.09-.32,.25-.49,.26-1.18,.07-2.36,.12-3.55,.16-.64,.02-1.07,.31-1.26,.94-.21,.68-.48,1.34-.62,2.03-.07,.34,.11,.73,.14,1.1,.02,.16-.04,.32-.07,.48-.15-.08-.42-.15-.43-.26-.08-.48-.2-1-.1-1.45,.16-.76,.49-1.48,.76-2.27Z"/>
      <text class="cls-19" transform="translate(527.67 109.02)"><tspan class="cls-26" x="0" y="0">B</tspan><tspan class="cls-41" x="8.26" y="0">AM</tspan><tspan class="cls-26" x="26.15" y="0">B</tspan><tspan class="cls-41" x="34.41" y="0">AN</tspan></text>
    </g>
    <path class="cls-6" d="M305.35,317.02l-6.74,31.54c-25.23-4.52-50.47-9.05-75.7-13.57-.13-.02-1.35-.25-1.91-1.39-.38-.78-.23-1.52-.17-1.74,4.01-9.34,8.02-18.68,12.03-28.02,.39-.52,1.1-1.32,2.24-1.91,2.02-1.06,3.98-.74,4.61-.61,22.27,4.76,44.55,9.53,66.82,14.29l11.66,2.31,35.97,5.1,34.09,8.49,26.8,8.01,8.35,9.05,9.05,3.13,30.28-10.09,33.76-5.49"/>
    <polygon class="cls-31" points="396.59 270.21 286.09 247.41 279.99 234.38 317.1 196.79 413.52 23.55 416.56 25.25 319.91 198.9 319.75 199.07 284.17 235.1 288.5 244.35 397.29 266.8 396.59 270.21"/>
    <path class="cls-6" d="M407.66,65.41l11.9,2.49c2.09,4.45,4.18,8.89,6.27,13.34,1.6,4.95,3.13,10.6,4.35,16.88,1.18,6.05,1.87,11.67,2.26,16.71l-2.26,20.19-42.29,168.29-5.1,35.85-8.82,29.93-51.86,112.42-5.57,2.44-18.38-10.66"/>
    <g>
      <text class="cls-13" transform="translate(97.42 704.98)"><tspan class="cls-50" x="0" y="0">B</tspan><tspan class="cls-34" x="10.42" y="0">AM</tspan><tspan class="cls-50" x="36.31" y="0">B</tspan><tspan class="cls-34" x="46.73" y="0">AN BRI</tspan><tspan class="cls-23" x="109.94" y="0">D</tspan><tspan class="cls-34" x="122.34" y="0">GE</tspan></text>
      <path class="cls-2" d="M103.85,694.3c2.23-3.98,4.84-7.52,7.73-11.03h-7.47v-2.09c.25,0,.51,0,.77,0,2.63,0,5.25-.01,7.88,0,.47,0,.78-.15,1.1-.49,5.71-6.29,12.19-11.63,19.61-15.81,7.31-4.12,15.11-6.85,23.41-8.13,6.41-.98,12.83-1.1,19.26-.34,13.1,1.56,24.77,6.6,35.14,14.68,3.67,2.86,7.07,6.02,10.19,9.48,.4,.44,.8,.61,1.39,.61,2.65-.03,5.3-.01,7.95-.01,1.06,0,1.58,.35,1.59,1.04,0,.69-.52,1.04-1.58,1.04-2.26,0-4.53,0-6.95,0,2.87,3.53,5.51,7.06,7.72,11.05-1.81,0-3.51,.01-5.2-.02-.15,0-.33-.26-.43-.43-1.99-3.54-4.35-6.84-6.89-10.01-.34-.42-.68-.6-1.24-.6-33.41,.01-66.83,.01-100.24,0-.53,0-.85,.17-1.18,.57-2.56,3.18-4.92,6.5-6.93,10.06-.1,.18-.34,.4-.51,.41-1.66,.03-3.32,.02-5.1,.02Zm66.92-13.17v-23h-6.49v23h6.49Zm7.61,0v-22.25c-2.18-.25-4.32-.49-6.49-.74v22.99h6.49Zm-15.23,.02v-22.88c-.35,0-.66-.03-.97,0-1.62,.2-3.24,.44-4.86,.62-.56,.06-.74,.24-.74,.82,.02,6.92,.01,13.84,.01,20.76v.67h6.56Zm16.38-22.07v22.05h6.55v-.77c0-4.08,0-8.16,0-12.24,0-2.26,0-4.53-.01-6.79,0-.21-.16-.57-.31-.62-2.05-.56-4.1-1.09-6.22-1.63Zm-24.02,.09c-2.02,.53-3.94,1.04-5.87,1.52-.49,.12-.66,.35-.66,.87,.02,6.29,.01,12.59,.01,18.88,0,.24,.02,.47,.03,.69h6.48v-21.97Zm-7.59,2.12c-.23,.07-.38,.1-.52,.15-1.83,.73-3.65,1.48-5.48,2.18-.46,.18-.58,.43-.58,.9,.02,5.33,.01,10.66,.01,15.99v.63h6.57v-19.85Zm45.69,19.87c.02-.15,.05-.24,.05-.32,0-5.58,0-11.15-.01-16.73,0-.21-.25-.51-.45-.6-1.39-.61-2.8-1.18-4.22-1.74-.58-.23-1.17-.4-1.8-.61v20h6.44Zm7.63,0c.03-.12,.06-.18,.06-.24,.05-4.19,.1-8.37,.11-12.56,0-.22-.22-.53-.42-.65-1.88-1.09-3.77-2.15-5.66-3.21-.17-.09-.36-.14-.57-.23v16.88h6.48Zm-61-.02v-16.81c-2.06,1.2-4.01,2.34-5.97,3.46-.43,.24-.57,.54-.57,1.02,.02,3.88,.01,7.76,.01,11.63,0,.22,0,.44,0,.7h6.52Zm68.78,.01c0-2.5,0-4.91-.02-7.33,0-.18-.19-.4-.35-.52-1.9-1.46-3.81-2.9-5.73-4.34-.11-.08-.26-.12-.48-.23v12.42h6.58Zm-82.91,.03c2.02,0,3.94-.02,5.87,.01,.55,0,.73-.14,.72-.71-.02-3.67-.01-7.34-.01-11.01,0-.17-.02-.34-.02-.53-.13,.04-.2,.04-.24,.07-2.03,1.54-4.07,3.09-6.09,4.64-.12,.09-.21,.3-.21,.45-.01,2.32,0,4.65,0,7.08Zm90.47-.04c.03-.06,.07-.12,.1-.19-2.15-2.14-4.31-4.28-6.46-6.43-.06,.05-.12,.09-.18,.14v6.47h6.53Zm-91.57,0v-6.23s-.1-.07-.14-.1c-2.05,2.06-4.1,4.11-6.15,6.17,.04,.05,.08,.11,.13,.16h6.17Z"/>
    </g>
    <text class="cls-15" transform="translate(405.72 151.95) rotate(12.02)"><tspan class="cls-12" x="0" y="0">M</tspan><tspan class="cls-29" x="10.98" y="0">A</tspan><tspan class="cls-35" x="19.93" y="0">CALE STREET</tspan></text>
    <text class="cls-18" transform="translate(286.59 180.26) rotate(28.95)"><tspan class="cls-25" x="0" y="0">SI</tspan><tspan class="cls-22" x="9.73" y="0">B</tspan><tspan class="cls-25" x="15.01" y="0">AL S</tspan><tspan class="cls-44" x="36.16" y="0">T</tspan><tspan class="cls-25" x="41.33" y="0">.</tspan></text>
    <text class="cls-16" transform="translate(326.75 241.43) rotate(9.65)"><tspan class="cls-40"><tspan x="0" y="0">PUBLIC </tspan></tspan><tspan class="cls-40" x="-2.91" y="9.4">MA</tspan><tspan class="cls-42" x="14.36" y="9.4">R</tspan><tspan class="cls-30" x="22.12" y="9.4">KIET</tspan></text>
    <text class="cls-18" transform="translate(425.55 226.24) rotate(-37.24)"><tspan class="cls-43" x="0" y="0">SI</tspan><tspan class="cls-36" x="9.73" y="0">B</tspan><tspan class="cls-43" x="15.01" y="0">AL S</tspan><tspan class="cls-46" x="36.16" y="0">T</tspan><tspan class="cls-25" x="41.33" y="0">.</tspan></text>
    <text class="cls-15" transform="translate(586.31 149.83) rotate(-47.07)"><tspan class="cls-21" x="0" y="0">CALU</tspan><tspan class="cls-39" x="37.43" y="0">B</tspan><tspan class="cls-27" x="45.74" y="0">A</tspan><tspan class="cls-28" x="55.26" y="0">S</tspan><tspan class="cls-45" x="63.41" y="0">A RD</tspan></text>
    <g>
      <line class="cls-7" x1="137.19" y1="747.85" x2="136.03" y2="745.08"/>
      <polyline class="cls-8" points="133.68 739.53 121.5 710.64 97.18 653.47"/>
      <polyline class="cls-7" points="96 650.7 95.63 649.84 95.63 647.77 98.37 646.55"/>
      <polyline class="cls-5" points="103.87 644.09 238.38 583.97 257.85 555.82 338.83 368.24 361.77 336.11 379.37 270.21 398.89 166.08"/>
      <polyline class="cls-7" points="399.45 163.12 400 160.17 402.89 159.37"/>
      <polyline class="cls-10" points="408.84 159.77 500.1 177.57 558.34 199.62"/>
      <polyline class="cls-7" points="561.18 200.7 562.29 201.12 564.1 201.27 564.88 198.38"/>
      <polyline class="cls-9" points="566.52 192.24 567.1 190.07 580.1 131.17 595.92 114.13"/>
      <line class="cls-7" x1="598.09" y1="111.8" x2="600.13" y2="109.6"/>
      <g>
        <path class="cls-1" d="M603.78,113.4c1.98-2.13,1.85-5.46-.28-7.44-2.13-1.98-5.46-1.85-7.44,.28-1.98,2.13-1.85,5.46,.28,7.44,2.13,1.98,5.46,1.85,7.44-.28Z"/>
        <path class="cls-33" d="M604.3,113.88c-2.24,2.41-6.02,2.55-8.43,.31-2.41-2.24-2.55-6.02-.31-8.43,2.24-2.41,6.02-2.55,8.43-.31,2.41,2.24,2.55,6.02,.31,8.43-2.24,2.41,2.24-2.41,0,0Zm-7.71-7.16c-1.71,1.84-1.61,4.74,.24,6.45,1.84,1.71,4.74,1.61,6.45-.24,1.71-1.84,1.61-4.74-.24-6.45-1.84-1.71-4.74-1.61-6.45,.24-1.71,1.84,1.71-1.84,0,0Z"/>
      </g>
    </g>
  </g>
</svg>