<?xml version="1.0" encoding="UTF-8"?>
<svg id="Layer_1" data-name="Layer 1" xmlns="http://www.w3.org/2000/svg" viewBox="0 0 287 141.43">
  <defs>
    <style>
      .cls-1 {
        fill: #abcbbf;
      }

      .cls-2 {
        fill: #d2c9c0;
      }

      .cls-3 {
        fill: #465f59;
      }

      .cls-4 {
        font-family: AmalfiCoast, 'Amalfi Coast';
        font-size: 16px;
      }

      .cls-4, .cls-5 {
        fill: #565957;
      }

      .cls-6 {
        fill: #87a38c;
      }
    </style>
  </defs>
  <g>
    <circle class="cls-3" cx="24.67" cy="24.67" r="24.67"/>
    <circle class="cls-6" cx="84.09" cy="24.67" r="24.67"/>
    <circle class="cls-1" cx="143.5" cy="24.67" r="24.67"/>
    <circle class="cls-2" cx="202.91" cy="24.67" r="24.67"/>
    <circle class="cls-5" cx="262.33" cy="24.67" r="24.67"/>
  </g>
  <text class="cls-4" transform="translate(48.89 85.66)"><tspan x="0" y="0"> </tspan></text>
  <g>
    <path class="cls-5" d="M63.8,92.73c-.33,.22-.5,.47-.5,.75,0,.23,.07,.4,.2,.51s.35,.21,.64,.29c.24,.07,.55,.11,.92,.13,.37,.02,.76,.04,1.16,.06,.4,.02,.79,.06,1.17,.11,.38,.05,.69,.15,.93,.28,.33,.19,.58,.45,.73,.8,.15,.35,.23,.72,.23,1.12,0,.48-.08,.94-.23,1.38-.15,.44-.41,.83-.78,1.17s-.85,.61-1.45,.82c-.6,.21-1.35,.31-2.24,.31-.47,0-.9-.03-1.31-.1-.41-.07-.76-.17-1.06-.32-.3-.15-.54-.35-.72-.6-.18-.25-.27-.57-.27-.94,0-.17,.03-.37,.08-.59s.16-.45,.32-.68c.16-.23,.39-.46,.69-.68,.3-.22,.7-.43,1.21-.63-.47-.15-.79-.35-.97-.61-.18-.26-.27-.55-.27-.87,0-.57,.21-1.07,.63-1.48s.96-.7,1.63-.86c-.39-.27-.65-.58-.78-.93-.13-.35-.2-.66-.2-.93,0-.4,.08-.79,.25-1.18,.17-.39,.41-.73,.73-1.03,.32-.3,.71-.54,1.17-.73,.46-.19,.99-.28,1.59-.28s1.08,.09,1.44,.28c.36,.19,.62,.36,.78,.52,.03-.13,.07-.29,.14-.47,.07-.18,.15-.36,.25-.53,.1-.17,.21-.32,.34-.44,.13-.12,.26-.18,.41-.18,.41,0,.62,.2,.62,.6,0,.19-.05,.34-.14,.45s-.23,.17-.42,.17c-.15,0-.27-.04-.36-.11-.09-.07-.15-.17-.18-.29,0-.03-.01-.04-.04-.04-.07,0-.14,.12-.23,.35-.09,.23-.16,.46-.21,.67,.09,.12,.17,.27,.23,.45s.09,.46,.09,.83c0,.33-.07,.68-.22,1.05-.15,.37-.38,.7-.69,1.01-.31,.31-.72,.56-1.21,.76-.49,.2-1.09,.3-1.8,.3-.28,0-.51-.02-.69-.05-.18-.03-.34-.06-.47-.09-.43,.09-.81,.25-1.14,.47Zm4.46,4.37c-.13-.23-.33-.41-.6-.56-.21-.11-.48-.19-.79-.25-.31-.06-.64-.11-.98-.15s-.68-.07-1.01-.09c-.33-.02-.63-.04-.88-.07-.76,.31-1.29,.64-1.6,1-.31,.36-.46,.77-.46,1.24,0,1.25,.99,1.88,2.98,1.88,.51,0,.98-.05,1.41-.16,.43-.11,.81-.26,1.12-.45,.31-.19,.56-.43,.74-.71,.18-.28,.27-.59,.27-.94,0-.27-.07-.51-.2-.74Zm-2.93-5.3c.18,.19,.45,.28,.81,.28,.48,0,.86-.14,1.14-.41,.28-.27,.51-.73,.7-1.37,.15-.47,.27-.88,.36-1.23,.09-.35,.14-.64,.14-.87,0-.21-.09-.41-.28-.59-.19-.18-.46-.27-.82-.27-.23,0-.42,.02-.59,.06-.17,.04-.32,.13-.46,.26-.14,.13-.27,.32-.4,.55-.13,.23-.26,.54-.39,.91-.13,.36-.25,.74-.34,1.13-.09,.39-.14,.69-.14,.89,0,.25,.09,.47,.27,.66Z"/>
    <path class="cls-5" d="M76.78,87.88c.15-.16,.32-.3,.52-.43,.2-.13,.43-.23,.68-.31,.25-.08,.55-.12,.88-.12,.2,0,.4,.02,.59,.07,.19,.05,.36,.12,.51,.22,.15,.1,.27,.23,.36,.4,.09,.17,.14,.38,.14,.63,0,.41-.12,.7-.37,.87-.25,.17-.49,.25-.73,.25-.35,0-.63-.1-.84-.31s-.32-.47-.32-.79c0-.24,.07-.45,.2-.63,.13-.18,.26-.3,.38-.37h-.14c-.27,0-.54,.08-.83,.24-.29,.16-.55,.36-.8,.59-.25,.23-.46,.48-.65,.75s-.31,.51-.36,.72l-1.52,5.42h-1.7l2.06-7.5h-1.12l.08-.34h2.86l-.3,1.1c.13-.15,.27-.3,.42-.46Z"/>
    <path class="cls-5" d="M84.84,92.36c-.07,.23-.11,.42-.12,.59-.01,.17-.02,.32-.02,.47,0,.44,.14,.81,.42,1.11,.28,.3,.67,.45,1.18,.45,.41,0,.8-.06,1.16-.19,.36-.13,.68-.29,.96-.49,.28-.2,.52-.43,.72-.68s.35-.51,.46-.76c.04-.11,.11-.16,.2-.16,.11,0,.16,.05,.16,.16,0,.05,0,.09-.02,.12-.12,.27-.28,.54-.49,.81-.21,.27-.46,.52-.77,.75s-.67,.41-1.08,.55c-.41,.14-.88,.21-1.4,.21-.47,0-.91-.08-1.32-.25-.41-.17-.77-.4-1.07-.69-.3-.29-.54-.65-.71-1.06-.17-.41-.26-.87-.26-1.36,0-.67,.13-1.3,.4-1.89,.27-.59,.64-1.12,1.11-1.57s1.03-.81,1.67-1.07c.64-.26,1.33-.39,2.08-.39s1.33,.16,1.78,.49c.45,.33,.68,.77,.68,1.33,0,.47-.13,.86-.39,1.18-.26,.32-.58,.58-.97,.78s-.81,.34-1.26,.43-.87,.13-1.26,.13c-.41,0-.72-.03-.93-.08s-.4-.11-.59-.18l-.32,1.26Zm2.64-1.59c.32-.13,.6-.3,.83-.52s.42-.47,.55-.75c.13-.28,.2-.58,.2-.9,0-.37-.08-.68-.25-.91-.17-.23-.46-.35-.87-.35-.21,0-.42,.02-.61,.07s-.38,.14-.56,.28c-.18,.14-.35,.33-.52,.58-.17,.25-.33,.58-.49,.99-.08,.21-.16,.44-.24,.69s-.17,.52-.26,.83c.13,.04,.29,.08,.46,.12,.17,.04,.41,.06,.72,.06,.37,0,.72-.06,1.04-.19Z"/>
    <path class="cls-5" d="M95.48,92.36c-.07,.23-.11,.42-.12,.59-.01,.17-.02,.32-.02,.47,0,.44,.14,.81,.42,1.11,.28,.3,.67,.45,1.18,.45,.41,0,.8-.06,1.16-.19,.36-.13,.68-.29,.96-.49,.28-.2,.52-.43,.72-.68s.35-.51,.46-.76c.04-.11,.11-.16,.2-.16,.11,0,.16,.05,.16,.16,0,.05,0,.09-.02,.12-.12,.27-.28,.54-.49,.81-.21,.27-.46,.52-.77,.75s-.67,.41-1.08,.55c-.41,.14-.88,.21-1.4,.21-.47,0-.91-.08-1.32-.25-.41-.17-.77-.4-1.07-.69-.3-.29-.54-.65-.71-1.06-.17-.41-.26-.87-.26-1.36,0-.67,.13-1.3,.4-1.89,.27-.59,.64-1.12,1.11-1.57s1.03-.81,1.67-1.07c.64-.26,1.33-.39,2.08-.39s1.33,.16,1.78,.49c.45,.33,.68,.77,.68,1.33,0,.47-.13,.86-.39,1.18-.26,.32-.58,.58-.97,.78s-.81,.34-1.26,.43-.87,.13-1.26,.13c-.41,0-.72-.03-.93-.08s-.4-.11-.59-.18l-.32,1.26Zm2.64-1.59c.32-.13,.6-.3,.83-.52s.42-.47,.55-.75c.13-.28,.2-.58,.2-.9,0-.37-.08-.68-.25-.91-.17-.23-.46-.35-.87-.35-.21,0-.42,.02-.61,.07s-.38,.14-.56,.28c-.18,.14-.35,.33-.52,.58-.17,.25-.33,.58-.49,.99-.08,.21-.16,.44-.24,.69s-.17,.52-.26,.83c.13,.04,.29,.08,.46,.12,.17,.04,.41,.06,.72,.06,.37,0,.72-.06,1.04-.19Z"/>
    <path class="cls-5" d="M113.58,92.4s-.01,.06-.04,.14c-.21,.41-.42,.79-.61,1.13-.19,.34-.39,.63-.6,.88-.21,.25-.43,.44-.68,.57s-.54,.2-.87,.2c-.43,0-.76-.12-1.01-.35-.25-.23-.37-.6-.37-1.09,0-.15,.02-.32,.05-.51,.03-.19,.1-.5,.21-.91l.64-2.34c.11-.41,.19-.74,.24-.99,.05-.25,.08-.46,.08-.65,0-.35-.09-.61-.26-.78s-.37-.26-.6-.26-.47,.08-.74,.25c-.27,.17-.53,.38-.78,.64s-.48,.55-.68,.88c-.2,.33-.35,.65-.44,.97l-1.36,4.9h-1.7l2.06-7.52h-1.28l.06-.32h3.02l-.36,1.32c.11-.15,.23-.31,.38-.49,.15-.18,.33-.35,.56-.5,.23-.15,.49-.28,.8-.39,.31-.11,.67-.16,1.1-.16,.57,0,1.03,.13,1.38,.38,.35,.25,.52,.69,.52,1.3,0,.15-.02,.32-.05,.53-.03,.21-.11,.54-.23,.99l-.78,2.8c-.09,.33-.15,.58-.18,.74-.03,.16-.04,.29-.04,.4,0,.33,.11,.5,.32,.5,.2,0,.46-.18,.79-.55,.33-.37,.7-.95,1.11-1.75,.05-.09,.11-.14,.18-.14,.11,0,.16,.06,.16,.18Z"/>
    <path class="cls-5" d="M117.27,88.48c.11-.27,.29-.51,.52-.73s.53-.4,.88-.53c.35-.13,.77-.2,1.25-.2,.32,0,.64,.03,.95,.09,.31,.06,.59,.16,.84,.29,.25,.13,.45,.3,.6,.49,.15,.19,.23,.42,.23,.69,0,.29-.08,.52-.24,.68s-.37,.24-.62,.24c-.27,0-.48-.08-.65-.23-.17-.15-.25-.35-.25-.59,0-.37,.19-.62,.56-.74,.09-.03,.14-.07,.14-.14,0-.08-.13-.18-.39-.29-.26-.11-.66-.17-1.21-.17-.97,0-1.46,.39-1.46,1.16,0,.37,.19,.69,.56,.94,.21,.15,.42,.28,.63,.39,.21,.11,.41,.23,.61,.35,.2,.12,.39,.25,.58,.39,.19,.14,.37,.31,.56,.51,.45,.52,.68,1.09,.68,1.72,0,.32-.06,.63-.18,.93-.12,.3-.31,.57-.56,.8-.25,.23-.57,.42-.96,.56-.39,.14-.85,.21-1.38,.21-.47,0-.89-.06-1.26-.17-.37-.11-.69-.25-.95-.42-.26-.17-.46-.36-.6-.57-.14-.21-.21-.42-.21-.62,0-.27,.08-.49,.23-.67,.15-.18,.35-.27,.59-.27,.2,0,.38,.07,.54,.2,.16,.13,.24,.34,.24,.62,0,.2-.03,.36-.1,.47-.07,.11-.16,.2-.28,.27-.09,.05-.14,.13-.14,.22,0,.04,.05,.09,.16,.16,.11,.07,.24,.14,.41,.21,.17,.07,.36,.13,.58,.18,.22,.05,.45,.07,.69,.07,.64,0,1.12-.13,1.43-.38,.31-.25,.47-.58,.47-.98,0-.37-.13-.7-.4-.98-.19-.19-.37-.34-.56-.45-.19-.11-.38-.23-.58-.34-.2-.11-.41-.24-.62-.37-.21-.13-.44-.31-.68-.52-.27-.24-.47-.48-.61-.71-.14-.23-.21-.55-.21-.95,0-.28,.06-.55,.17-.82Z"/>
    <path class="cls-5" d="M142.68,86.3h1.08v2.7h2.7v1.08h-2.7v2.7h-1.08v-2.7h-2.7v-1.08h2.7v-2.7Z"/>
    <path class="cls-5" d="M173.46,92.4s-.01,.06-.04,.14c-.21,.41-.42,.79-.61,1.13s-.39,.63-.6,.88c-.21,.25-.43,.44-.68,.57-.25,.13-.54,.2-.87,.2-.43,0-.76-.12-1.01-.35-.25-.23-.37-.6-.37-1.09,0-.15,.02-.32,.05-.51s.1-.5,.21-.91l.64-2.34c.11-.41,.19-.74,.24-.99,.05-.25,.08-.46,.08-.65,0-.35-.09-.61-.26-.78-.17-.17-.37-.26-.6-.26s-.47,.08-.74,.25-.53,.38-.78,.64c-.25,.26-.48,.55-.68,.88-.2,.33-.35,.65-.44,.97l-1.36,4.9h-1.7l2.06-7.52h-1.28l.06-.32h3.02l-.36,1.32c.11-.15,.23-.31,.38-.49,.15-.18,.33-.35,.56-.5s.49-.28,.8-.39c.31-.11,.67-.16,1.1-.16,.57,0,1.03,.13,1.38,.38,.35,.25,.52,.69,.52,1.3,0,.15-.02,.32-.05,.53-.03,.21-.11,.54-.23,.99l-.78,2.8c-.09,.33-.15,.58-.18,.74-.03,.16-.04,.29-.04,.4,0,.33,.11,.5,.32,.5,.2,0,.46-.18,.79-.55,.33-.37,.7-.95,1.11-1.75,.05-.09,.11-.14,.18-.14,.11,0,.16,.06,.16,.18Z"/>
    <path class="cls-5" d="M178.28,92.36c-.07,.23-.11,.42-.12,.59-.01,.17-.02,.32-.02,.47,0,.44,.14,.81,.42,1.11,.28,.3,.67,.45,1.18,.45,.41,0,.8-.06,1.16-.19,.36-.13,.68-.29,.96-.49,.28-.2,.52-.43,.72-.68s.35-.51,.46-.76c.04-.11,.11-.16,.2-.16,.11,0,.16,.05,.16,.16,0,.05,0,.09-.02,.12-.12,.27-.28,.54-.49,.81-.21,.27-.46,.52-.77,.75s-.67,.41-1.08,.55c-.41,.14-.88,.21-1.4,.21-.47,0-.91-.08-1.32-.25-.41-.17-.77-.4-1.07-.69s-.54-.65-.71-1.06c-.17-.41-.26-.87-.26-1.36,0-.67,.13-1.3,.4-1.89,.27-.59,.64-1.12,1.11-1.57s1.03-.81,1.67-1.07c.64-.26,1.33-.39,2.08-.39s1.33,.16,1.78,.49c.45,.33,.68,.77,.68,1.33,0,.47-.13,.86-.39,1.18-.26,.32-.58,.58-.97,.78s-.81,.34-1.26,.43-.87,.13-1.26,.13c-.41,0-.72-.03-.93-.08-.21-.05-.4-.11-.59-.18l-.32,1.26Zm2.64-1.59c.32-.13,.6-.3,.83-.52s.42-.47,.55-.75c.13-.28,.2-.58,.2-.9,0-.37-.08-.68-.25-.91s-.46-.35-.87-.35c-.21,0-.42,.02-.61,.07-.19,.05-.38,.14-.56,.28-.18,.14-.35,.33-.52,.58-.17,.25-.33,.58-.49,.99-.08,.21-.16,.44-.24,.69s-.17,.52-.26,.83c.13,.04,.29,.08,.46,.12,.17,.04,.41,.06,.72,.06,.37,0,.72-.06,1.04-.19Z"/>
    <path class="cls-5" d="M187.07,92.65c.03-.23,.1-.51,.19-.83l1.22-4.34-1.44,.1,.08-.32,3.18-.24-1.4,5.06c-.08,.28-.15,.54-.2,.77-.05,.23-.08,.44-.08,.63,0,.44,.1,.76,.29,.96,.19,.2,.46,.3,.81,.3,.2,0,.43-.06,.68-.18,.25-.12,.5-.29,.74-.5,.24-.21,.46-.46,.66-.74,.2-.28,.34-.57,.42-.88l1.46-5.18h1.7l-1.66,5.98c-.03,.12-.06,.24-.09,.35s-.05,.21-.05,.29c0,.39,.14,.58,.42,.58,.23,0,.51-.15,.84-.46,.33-.31,.68-.78,1.04-1.42,.05-.09,.11-.14,.18-.14,.12,0,.18,.06,.18,.18,0,.03-.01,.07-.04,.12-.11,.2-.26,.45-.45,.75s-.43,.58-.7,.85c-.27,.27-.58,.5-.93,.69-.35,.19-.72,.29-1.12,.29-.33,0-.6-.1-.79-.31-.19-.21-.29-.46-.29-.77,0-.07,0-.16,.02-.29,.01-.13,.03-.22,.04-.29-.15,.2-.32,.4-.51,.6-.19,.2-.41,.38-.66,.54s-.51,.29-.79,.38c-.28,.09-.57,.14-.88,.14-.73,0-1.27-.17-1.61-.51-.34-.34-.51-.83-.51-1.47,0-.23,.02-.46,.05-.69Z"/>
    <path class="cls-5" d="M204.22,87.24l-.1,.32h-1.72l-1.5,5.4c-.08,.32-.12,.59-.12,.8,0,.63,.29,.94,.86,.94,.28,0,.58-.12,.9-.35,.32-.23,.59-.56,.82-.99,.05-.12,.13-.18,.22-.18,.08,0,.12,.05,.12,.16,0,.05,0,.09-.02,.12-.24,.52-.59,.96-1.05,1.31-.46,.35-1.05,.53-1.77,.53-.56,0-.99-.15-1.3-.45-.31-.3-.46-.71-.46-1.23,0-.24,.04-.51,.12-.82l1.46-5.24h-1.38l.1-.32h1.38l.74-2.72,1.84-.42-.86,3.14h1.72Z"/>
    <path class="cls-5" d="M210.04,87.88c.15-.16,.32-.3,.52-.43s.43-.23,.68-.31c.25-.08,.55-.12,.88-.12,.2,0,.4,.02,.59,.07,.19,.05,.36,.12,.51,.22,.15,.1,.27,.23,.36,.4,.09,.17,.14,.38,.14,.63,0,.41-.12,.7-.37,.87-.25,.17-.49,.25-.73,.25-.35,0-.63-.1-.84-.31-.21-.21-.32-.47-.32-.79,0-.24,.07-.45,.2-.63,.13-.18,.26-.3,.38-.37h-.14c-.27,0-.54,.08-.83,.24-.29,.16-.55,.36-.8,.59-.25,.23-.46,.48-.65,.75s-.31,.51-.36,.72l-1.52,5.42h-1.7l2.06-7.5h-1.12l.08-.34h2.86l-.3,1.1c.13-.15,.27-.3,.42-.46Z"/>
    <path class="cls-5" d="M223.22,93.82c-.05,.16-.08,.32-.08,.48s.04,.27,.11,.33c.07,.06,.17,.09,.29,.09,.24,0,.54-.17,.91-.5,.37-.33,.75-.91,1.15-1.72,.05-.11,.12-.16,.2-.16,.09,0,.14,.05,.14,.14,0,.04,0,.08-.02,.11s-.03,.07-.06,.11c-.19,.36-.38,.7-.58,1.02-.2,.32-.42,.6-.67,.83-.25,.23-.52,.42-.82,.55-.3,.13-.65,.2-1.05,.2-.47,0-.79-.12-.98-.36-.19-.24-.28-.59-.28-1.06-.11,.15-.25,.3-.42,.47-.17,.17-.37,.32-.6,.46-.23,.14-.48,.26-.76,.35s-.57,.14-.88,.14c-.47,0-.88-.1-1.25-.31-.37-.21-.68-.48-.93-.81-.25-.33-.45-.71-.58-1.13-.13-.42-.2-.84-.2-1.27,0-.61,.13-1.21,.4-1.78s.62-1.08,1.05-1.52c.43-.44,.93-.79,1.48-1.06,.55-.27,1.11-.4,1.67-.4,.63,0,1.14,.15,1.53,.46,.39,.31,.66,.73,.79,1.28l.44-1.52h1.8l-1.8,6.58Zm-.7-4.4c0-.28-.05-.55-.15-.8-.1-.25-.23-.48-.4-.67s-.36-.34-.57-.45c-.21-.11-.43-.16-.66-.16-.24,0-.48,.06-.73,.18-.25,.12-.46,.3-.65,.54-.16,.21-.33,.52-.52,.92-.19,.4-.36,.84-.52,1.32-.16,.48-.29,.98-.39,1.49-.1,.51-.15,1-.15,1.45,0,.6,.09,1.04,.27,1.32,.18,.28,.48,.42,.89,.42,.31,0,.65-.09,1.03-.28s.7-.41,.97-.68c.21-.21,.38-.46,.49-.75,.11-.29,.22-.6,.33-.95l.68-2.28c.05-.16,.08-.37,.08-.62Z"/>
    <path class="cls-5" d="M230.76,81.64h3.1l-3.28,11.78c-.03,.12-.05,.26-.06,.41-.01,.15-.02,.28-.02,.37,0,.33,.14,.5,.42,.5,.25,0,.55-.18,.88-.55,.33-.37,.73-.96,1.2-1.77,.05-.09,.11-.14,.18-.14,.11,0,.16,.05,.16,.16,0,.07-.01,.11-.04,.14-.19,.32-.37,.65-.56,.98-.19,.33-.39,.63-.62,.89s-.48,.47-.76,.64c-.28,.17-.6,.25-.96,.25-1.03,0-1.54-.48-1.54-1.44,0-.19,.03-.42,.09-.7,.06-.28,.14-.59,.23-.94l2.86-10.26h-1.36l.08-.32Z"/>
    <path class="cls-5" d="M237.15,88.48c.11-.27,.29-.51,.52-.73s.53-.4,.88-.53c.35-.13,.77-.2,1.25-.2,.32,0,.64,.03,.95,.09,.31,.06,.59,.16,.84,.29,.25,.13,.45,.3,.6,.49,.15,.19,.23,.42,.23,.69,0,.29-.08,.52-.24,.68-.16,.16-.37,.24-.62,.24-.27,0-.48-.08-.65-.23s-.25-.35-.25-.59c0-.37,.19-.62,.56-.74,.09-.03,.14-.07,.14-.14,0-.08-.13-.18-.39-.29-.26-.11-.66-.17-1.21-.17-.97,0-1.46,.39-1.46,1.16,0,.37,.19,.69,.56,.94,.21,.15,.42,.28,.63,.39,.21,.11,.41,.23,.61,.35,.2,.12,.39,.25,.58,.39,.19,.14,.37,.31,.56,.51,.45,.52,.68,1.09,.68,1.72,0,.32-.06,.63-.18,.93-.12,.3-.31,.57-.56,.8-.25,.23-.57,.42-.96,.56-.39,.14-.85,.21-1.38,.21-.47,0-.89-.06-1.26-.17s-.69-.25-.95-.42c-.26-.17-.46-.36-.6-.57-.14-.21-.21-.42-.21-.62,0-.27,.08-.49,.23-.67,.15-.18,.35-.27,.59-.27,.2,0,.38,.07,.54,.2,.16,.13,.24,.34,.24,.62,0,.2-.03,.36-.1,.47-.07,.11-.16,.2-.28,.27-.09,.05-.14,.13-.14,.22,0,.04,.05,.09,.16,.16,.11,.07,.24,.14,.41,.21,.17,.07,.36,.13,.58,.18,.22,.05,.45,.07,.69,.07,.64,0,1.12-.13,1.43-.38,.31-.25,.47-.58,.47-.98,0-.37-.13-.7-.4-.98-.19-.19-.37-.34-.56-.45s-.38-.23-.58-.34c-.2-.11-.41-.24-.62-.37-.21-.13-.44-.31-.68-.52-.27-.24-.47-.48-.61-.71-.14-.23-.21-.55-.21-.95,0-.28,.06-.55,.17-.82Z"/>
  </g>
</svg>